HIERARCHY
ROOT Hips
{
    OFFSET 0.000000 0.000000 0.000000
    CHANNELS 6 Xposition Yposition Zposition Zrotation Xrotation Yrotation
    JOINT Spine
    {
        OFFSET -0.000000 7.236184 0.000000
        CHANNELS 3 Zrotation Xrotation Yrotation
        JOINT Spine1
        {
            OFFSET -0.000000 20.420147 0.000000
            CHANNELS 3 Zrotation Xrotation Yrotation
            JOINT Neck
            {
                OFFSET -0.000000 20.336288 1.848754
                CHANNELS 3 Zrotation Xrotation Yrotation
                JOINT Head
                {
                    OFFSET -0.000000 12.354461 -1.764923
                    CHANNELS 3 Zrotation Xrotation Yrotation
                    End Site
                    {
                        OFFSET -0.000000 22.061537 0.000000
                    }
                }
            }
            JOINT LeftShoulder
            {
                OFFSET 3.573296 18.396038 -0.314103
                CHANNELS 3 Zrotation Xrotation Yrotation
                JOINT LeftArm
                {
                    OFFSET 10.880760 0.000000 0.000000
                    CHANNELS 3 Zrotation Xrotation Yrotation
                    JOINT LeftForeArm
                    {
                        OFFSET 27.185530 0.000000 0.000000
                        CHANNELS 3 Zrotation Xrotation Yrotation
                        JOINT LeftHand
                        {
                            OFFSET 27.825975 0.000000 0.000000
                            CHANNELS 3 Zrotation Xrotation Yrotation
                            End Site
                            {
                                OFFSET 13.236923 0.000000 0.000000
                            }
                        }
                    }
                }
            }
            JOINT RightShoulder
            {
                OFFSET -3.474926 18.396038 -0.314103
                CHANNELS 3 Zrotation Xrotation Yrotation
                JOINT RightArm
                {
                    OFFSET -10.880760 0.000000 0.000000
                    CHANNELS 3 Zrotation Xrotation Yrotation
                    JOINT RightForeArm
                    {
                        OFFSET -27.185530 0.000000 0.000000
                        CHANNELS 3 Zrotation Xrotation Yrotation
                        JOINT RightHand
                        {
                            OFFSET -27.825975 0.000000 0.000000
                            CHANNELS 3 Zrotation Xrotation Yrotation
                            End Site
                            {
                                OFFSET -13.236923 0.000000 0.000000
                            }
                        }
                    }
                }
            }
        }
    }
    JOINT LeftUpLeg
    {
        OFFSET 8.824615 0.000000 0.000000
        CHANNELS 3 Zrotation Xrotation Yrotation
        JOINT LeftLeg
        {
            OFFSET -0.000000 -35.111282 0.000000
            CHANNELS 3 Zrotation Xrotation Yrotation
            JOINT LeftFoot
            {
                OFFSET -0.000000 -42.324711 0.000000
                CHANNELS 3 Zrotation Xrotation Yrotation
                JOINT LeftToeBase
                {
                    OFFSET -0.000000 -5.735999 13.236923
                    CHANNELS 3 Zrotation Xrotation Yrotation
                    End Site
                    {
                        OFFSET -0.000000 0.000000 3.529846
                    }
                }
            }
        }
    }
    JOINT RightUpLeg
    {
        OFFSET -8.824615 0.000000 0.000000
        CHANNELS 3 Zrotation Xrotation Yrotation
        JOINT RightLeg
        {
            OFFSET -0.000000 -35.111282 0.000000
            CHANNELS 3 Zrotation Xrotation Yrotation
            JOINT RightFoot
            {
                OFFSET -0.000000 -42.324711 0.000000
                CHANNELS 3 Zrotation Xrotation Yrotation
                JOINT RightToeBase
                {
                    OFFSET -0.000000 -5.735999 13.236923
                    CHANNELS 3 Zrotation Xrotation Yrotation
                    End Site
                    {
                        OFFSET -0.000000 0.000000 3.529846
                    }
                }
            }
        }
    }
}
MOTION
Frames:    12
Frame Time:    0.008333
-18.992237    88.913139    84.939423    -14.233162    19.569151    85.026413    2.549727    -10.426966    0.288674    1.303990    12.667086    -0.088394    2.213933    10.780073    25.008291    -21.847889    9.346348    24.839756    10.311852    8.573445    -8.562624    -29.658823    51.733418    -31.438700    22.325188    11.961719    -35.244492    48.935623    15.706983    -7.315347    -4.964420    9.900741    3.554615    29.721945    38.490273    42.917660    -3.944295    -23.254644    121.223679    -12.715386    -15.908097    -7.099309    26.138615    -35.594353    13.293853    -9.687285    48.989479    29.621939    -13.384250    15.056828    -24.889969    -1.535260    -4.290748    1.715477    -17.330679    -29.050604    -5.399033    3.058061    24.355625    2.566177    -1.970173    3.492060    -12.757194    -2.086769    -7.592950    2.282296    
-19.123789    89.453819    84.998611    -14.324660    20.360813    85.301773    2.363558    -10.211709    0.374979    0.467232    12.506270    0.112957    2.039989    11.022623    24.717674    -21.850801    9.482806    24.571404    10.458118    8.381730    -8.812925    -29.425125    51.531754    -30.722198    20.577158    13.077622    -32.817886    48.469727    16.094582    -6.686021    -5.135478    9.589987    3.673944    29.435719    37.998936    44.500206    -3.793011    -22.992577    121.880081    -12.695185    -15.807814    -7.090409    27.924894    -36.157642    13.871952    -10.240252    49.917725    30.401720    -12.943764    14.911406    -24.949688    -1.514513    -4.219428    1.692061    -18.391298    -28.803698    -5.678265    3.141051    23.576982    2.001068    -1.238968    4.232289    -12.423699    -2.134437    -7.686579    2.334773    
-19.250069    89.937706    85.055603    -14.432447    21.119104    85.555740    2.169125    -10.023259    0.451407    -0.346080    12.346556    0.298563    1.877913    11.275427    24.463118    -21.844776    9.570915    24.331165    10.560463    8.237473    -9.049090    -29.259146    51.234612    -29.958231    18.918127    14.000881    -30.527876    47.934906    16.445509    -6.022023    -5.256919    9.308446    3.752921    29.216742    37.481541    45.978497    -3.617747    -22.662716    122.473946    -12.689999    -15.693526    -7.068639    29.718214    -36.654823    14.469962    -10.732935    50.781635    31.081942    -12.529442    14.687621    -24.937056    -1.500137    -4.211515    1.675975    -19.417118    -28.641853    -5.986173    3.213346    22.957750    1.482190    -0.567824    4.854504    -12.138699    -2.176472    -7.761192    2.381032    
-19.375744    90.385666    85.112503    -14.557793    21.882467    85.794670    1.957340    -9.851479    0.523995    -1.172729    12.182312    0.480492    1.716685    11.545046    24.233318    -21.829100    9.617521    24.109020    10.628941    8.126178    -9.279546    -29.150352    50.828476    -29.113903    17.281490    14.788057    -28.280828    47.307819    16.775425    -5.301296    -5.345312    9.042181    3.805591    29.045666    36.937664    47.422085    -3.425901    -22.282825    123.030525    -12.695544    -15.568854    -7.036506    31.587667    -37.093426    15.116501    -11.173560    51.597576    31.682924    -12.124785    14.406529    -24.862900    -1.492694    -4.250394    1.667786    -20.456358    -28.552206    -6.344172    3.275128    22.461819    0.997420    0.062777    5.385745    -11.881625    -2.214777    -7.818885    2.423157    
-19.498596    90.790375    85.168411    -14.696700    22.647234    86.011833    1.728646    -9.697035    0.594512    -2.004855    12.016083    0.658922    1.555347    11.825085    24.031780    -21.803310    9.623413    23.908777    10.665133    8.043724    -9.499175    -29.097912    50.309654    -28.198099    15.692101    15.440845    -26.105614    46.593590    17.079634    -4.537723    -5.406848    8.792927    3.838376    28.918186    36.388412    48.817257    -3.229284    -21.878746    123.543488    -12.709789    -15.440634    -6.997038    33.507401    -37.452530    15.805207    -11.540689    52.334591    32.185886    -11.735723    14.090455    -24.735884    -1.493400    -4.325648    1.668819    -21.501528    -28.533224    -6.756219    3.323661    22.091311    0.560770    0.635090    5.816238    -11.647747    -2.249603    -7.857712    2.461410    
-19.622337    91.164146    85.225143    -14.851838    23.447109    86.212234    1.472264    -9.552794    0.667250    -2.875387    11.841948    0.842475    1.384179    12.122942    23.851862    -21.764248    9.589995    23.724268    10.671454    7.982395    -9.712893    -29.094717    49.647728    -27.179562    14.097927    15.989637    -23.923672    45.759880    17.367142    -3.706255    -5.450715    8.551127    3.858356    28.823727    35.825558    50.219032    -3.030330    -21.456835    124.030197    -12.730366    -15.309167    -6.949950    35.543579    -37.726578    16.561020    -11.825850    52.991520    32.592003    -11.345958    13.747725    -24.558537    -1.503150    -4.429298    1.680054    -22.596535    -28.580978    -7.246159    3.358452    21.829031    0.164481    1.159679    6.157897    -11.418958    -2.284157    -7.877515    2.499294    
-19.740128    91.485390    85.279678    -15.012897    24.249619    86.383591    1.197206    -9.424230    0.740046    -3.744809    11.668408    1.024143    1.207980    12.421268    23.703447    -21.712168    9.519989    23.565964    10.647362    7.940691    -9.906681    -29.135965    48.858177    -26.109350    12.581470    16.418097    -21.838852    44.843693    17.623512    -2.851395    -5.480709    8.328366    3.869557    28.761415    35.284885    51.562973    -2.845972    -21.054567    124.468285    -12.753375    -15.184382    -6.899729    37.592476    -37.883297    17.342743    -11.992590    53.507484    32.863796    -10.974060    13.406218    -24.346275    -1.522202    -4.551308    1.701752    -23.695080    -28.690207    -7.800544    3.375071    21.684610    -0.163703    1.600690    6.389250    -11.194106    -2.318616    -7.875083    2.536987    
-19.851313    91.754448    85.331810    -15.175807    25.059166    86.526634    0.902208    -9.308359    0.813544    -4.613942    11.495981    1.204754    1.024086    12.716539    23.585007    -21.646511    9.418308    23.433338    10.594405    7.912376    -10.077872    -29.209875    47.936356    -25.000076    11.144263    16.743055    -19.843510    43.849350    17.849632    -1.979362    -5.503059    8.123444    3.877794    28.724552    34.771118    52.853168    -2.681845    -20.685917    124.861282    -12.774207    -15.068406    -6.847526    39.640610    -37.912403    18.138741    -12.026234    53.858227    32.991081    -10.615919    13.077991    -24.107531    -1.550028    -4.685050    1.733314    -24.801676    -28.850859    -8.423068    3.372247    21.644175    -0.419496    1.955211    6.514690    -10.960497    -2.355049    -7.849942    2.576745    
-19.952402    91.965607    85.379944    -15.332031    25.856977    86.639862    0.594952    -9.205233    0.885724    -5.459488    11.330057    1.379840    0.836187    12.997664    23.497234    -21.570009    9.293320    23.328457    10.516074    7.892333    -10.220318    -29.302999    46.905682    -23.896021    9.823961    16.974569    -17.981815    42.811943    18.041965    -1.120022    -5.522453    7.941139    3.887429    28.708406    34.298809    54.058544    -2.545727    -20.369104    125.203171    -12.787378    -14.964669    -6.795764    41.616558    -37.809338    18.912212    -11.919173    54.015354    32.966522    -10.277334    12.776736    -23.854752    -1.584644    -4.823779    1.772505    -25.889528    -29.047436    -9.098714    3.348958    21.693382    -0.592491    2.214679    6.537495    -10.714319    -2.394051    -7.802747    2.619220    
-20.048376    92.131729    85.426483    -15.486041    26.688412    86.732857    0.258906    -9.106482    0.959975    -6.326912    11.163387    1.558324    0.632917    13.276581    23.432873    -21.478745    9.143145    23.243938    10.410251    7.873908    -10.340541    -29.407351    45.708340    -22.755234    8.550616    17.137608    -16.145239    41.680984    18.211164    -0.232093    -5.544047    7.770473    3.902656    28.708746    33.841244    55.245316    -2.432733    -20.093061    125.515579    -12.787843    -14.866873    -6.741215    43.608444    -37.564857    19.688000    -11.661148    53.962997    32.785465    -9.931385    12.492371    -23.575373    -1.627074    -4.969073    1.820484    -27.019745    -29.279451    -9.865447    3.302737    21.821335    -0.687024    2.395125    6.464541    -10.437191    -2.438537    -7.730617    2.667583    
-20.134052    92.243576    85.468887    -15.626715    27.517584    86.804024    -0.091250    -9.014780    1.032068    -7.175589    11.006220    1.731503    0.422584    13.535837    23.393591    -21.377756    8.979115    23.183220    10.282041    7.852884    -10.430852    -29.509537    44.390343    -21.644781    7.385467    17.235817    -14.413003    40.515442    18.350586    0.638336    -5.570539    7.619480    3.925549    28.724440    33.417366    56.357105    -2.350205    -19.873993    125.786377    -12.769890    -14.777965    -6.687389    45.504566    -37.184650    20.410799    -11.261356    53.673508    32.454426    -9.589657    12.233828    -23.280470    -1.673910    -5.114481    1.873424    -28.142715    -29.528461    -10.693352    3.233255    22.016243    -0.687872    2.484930    6.297107    -10.141482    -2.487010    -7.635335    2.720196    
-20.210922    92.305298    85.507736    -15.753688    28.360657    86.860222    -0.461116    -8.926454    1.102145    -8.019932    10.858796    1.901694    0.201301    13.776073    23.375290    -21.266367    8.803752    23.142693    10.131384    7.823391    -10.493650    -29.603348    42.927647    -20.560026    6.306183    17.283291    -12.744627    39.303150    18.464752    1.501975    -5.605057    7.483935    3.958170    28.754837    33.014484    57.414165    -2.296266    -19.706131    126.024117    -12.728268    -14.693527    -6.632888    47.321606    -36.667442    21.075291    -10.725224    53.123146    31.981934    -9.237502    11.991911    -22.960119    -1.724346    -5.259114    1.930422    -29.279966    -29.789890    -11.596221    3.138689    22.272671    -0.590216    2.487766    6.035305    -9.830910    -2.540506    -7.515612    2.778177    
